<svg width="293" height="22" viewBox="0 0 293 22" fill="none" xmlns="http://www.w3.org/2000/svg">
<path fill-rule="evenodd" clip-rule="evenodd" d="M241 10H239V11H238V13H239V14H241V13H242V11H241V10Z" fill="white"/>
<path fill-rule="evenodd" clip-rule="evenodd" d="M153 0H147V2H143V3H141V5H140V10H138V22H140V20H141V19H143V20H145V22H148V19H152V20V22H155V20H157V19H159V20H160V22H162V10H160V5H159V3H157V2H153V0Z" fill="#FF8F00"/>
<path fill-rule="evenodd" clip-rule="evenodd" d="M148 5H145V6H143V11H145V12H148V11H150V6H148V5Z" fill="white"/>
<rect x="147" y="7" width="3" height="3" fill="black"/>
<path fill-rule="evenodd" clip-rule="evenodd" d="M158 5H155V6H153V11H155V12H158V11H160V6H158V5Z" fill="white"/>
<rect x="157" y="7" width="3" height="3" fill="black"/>
<path fill-rule="evenodd" clip-rule="evenodd" d="M222 0H216V2H212V3H210V5H209V10H207V22H209V20H210V19H212V20H214V22H217V19H221V20V22H224V20H226V19H228V20H229V22H231V10H229V5H228V3H226V2H222V0Z" fill="#00C8FF"/>
<path fill-rule="evenodd" clip-rule="evenodd" d="M217 5H214V6H212V11H214V12H217V11H219V6H217V5Z" fill="white"/>
<rect x="216" y="7" width="3" height="3" fill="black"/>
<path fill-rule="evenodd" clip-rule="evenodd" d="M227 5H224V6H222V11H224V12H227V11H229V6H227V5Z" fill="white"/>
<rect x="226" y="7" width="3" height="3" fill="black"/>
<path fill-rule="evenodd" clip-rule="evenodd" d="M115 1H121V4H124V7H127V4H130V1H136V22H130V13H127V16H124V13H121V22H115V1Z" fill="white"/>
<path fill-rule="evenodd" clip-rule="evenodd" d="M164 1H170V4H173V7H176V10H179V1H185V22H179V19H176V16H173V13H170V22H164V1Z" fill="white"/>
<path fill-rule="evenodd" clip-rule="evenodd" d="M187 1H193H199H205V4H199V19H205V22H199H193H187V19H193V4H187V1Z" fill="white"/>
<path fill-rule="evenodd" clip-rule="evenodd" d="M0 1H6H18V4H21V13H15V16H18V19H21V22H12V19H9V16H6V22H0V1ZM12 13V10H15V4H6V13H12Z" fill="white"/>
<path fill-rule="evenodd" clip-rule="evenodd" d="M69 1H75H87V4H90V13H84V16H87V19H90V22H81V19H78V16H75V22H69V1ZM81 13V10H84V4H75V13H81Z" fill="white"/>
<path fill-rule="evenodd" clip-rule="evenodd" d="M95 1H110V4H113V19H110V22H95V19H92V4H95V1ZM98 19H107V4H98V19Z" fill="white"/>
<path fill-rule="evenodd" clip-rule="evenodd" d="M67 1H46V4H53V22H60V4H67V1Z" fill="white"/>
<path fill-rule="evenodd" clip-rule="evenodd" d="M44 1H26V4H23V19H26V22H44V19H29V13H41V10H29V4H44V1Z" fill="white"/>
<path fill-rule="evenodd" clip-rule="evenodd" d="M252 1H267V4H255V19H264V15H260V12H270V15V19H267V22H252V19H249V4H252V1Z" fill="white"/>
<path fill-rule="evenodd" clip-rule="evenodd" d="M275 1H290V4H278V19H287V15H283V12H293V15V19H290V22H275V19H272V4H275V1Z" fill="white"/>
</svg>
